# xmcd
#
# Track frame offsets:
#	150
#	14059
#	28075
#	41573
#	58209
#	71948
#	84271
#	97696
#	112137
#	127939
#	142596
#	155450
#	170255
#	186869
#	197808
#	211807
#	224619
#	239499
#
# Disc length: 3381 seconds
#
# Revision: 0
# Processed by: cddbd v1.5.2PL0 Copyright (c) Steve Scherf et al.
# Submitted via: EasyCDDAExtractor 16.0.6.1
#
DISCID=020d3312
DTITLE=Περπινιάδης Βαγγέλης - Τραγούδια 45 στροφές-Περπινιάδης Βαγγέλης 2
DYEAR=1998
DGENRE=Λαϊκή
TTITLE0=Περπινιάδης Βαγγέλης-Σύλβα Γιώτα - Το σπιτάκι είναι μικρό [1971, Μ. Μα
TTITLE0=τθαίου-Π. Παπαζαχαριάδη]
TTITLE1=Περπινιάδης Βαγγέλης-Ζαγοραίος Σ.-Αναγνωστάκης Π.-Καλάκη Ρ. - Κοκτέϊλ 
TTITLE1=με πενιές [1963, Σ. Περιστέρη-Γ. Ηλιάδη]
TTITLE2=Περπινιάδης Βαγγέλης-Νόρμα Ρία - Το γλυκό ψωμί που τρώω [1969, Β. Βασι
TTITLE2=λειάδη-Πυθαγόρα]
TTITLE3=Περπινιάδης Βαγγέλης-Νόρμα Ρία - Είσαι το λιμάνι μου [1965, Β. Περπινι
TTITLE3=άδη-Γ. Μπούρα]
TTITLE4=Περπινιάδης Βαγγέλης-Βιολάντη Ρένα-Ρίνα Πόπη - Θα σε πάρει άλλος [1968
TTITLE4=, Θ. Δερβενιώτη-Κ. Βίρβου]
TTITLE5=Περπινιάδης Βαγγέλης - Ένας κούκλος και μιά κούκλα [1964, Δ. Γκούτη]
TTITLE6=Περπινιάδης Βαγγέλης-Καλάκη Ρούλα - Το διαζύγιο [1963, Θ. Δερβενιώτη-Κ
TTITLE6=Βίρβου]
TTITLE7=Περπινιάδης Βαγγέλης - Ο μπαγλαμάς μου και η παραπονιάρα [1961, Β. Περ
TTITLE7=πινιάδη-Δ. Γκούτη]
TTITLE8=Περπινιάδης Βαγγέλης-Νόρμα Ρία - Θα φτιάξω από το άλφα την ζωή μου [19
TTITLE8=69, Β. Βασιλειάδη-Πυθαγόρα]
TTITLE9=Περπινιάδης Βαγγέλης-Νόρμα Ρία - Θά 'ρθω για να σε ζητήσω [1969, Β. Πε
TTITLE9=ρπινιάδη]
TTITLE10=Περπινιάδης Βαγγέλης - Ποιος το ξέρει, ποιος το ξέρει [1970, Γ. Βασιλ
TTITLE10=όπουλου-Ε. Ατραΐδη]
TTITLE11=Περπινιάδης Βαγγέλης-Χρυσάφη Άννα-Γκίκα Βούλα - Έμπα στο αμάξι κούκλα
TTITLE11=μου [1960, Β. Περπινιάδη]
TTITLE12=Περπινιάδης Βαγγέλης-Νόρμα Ρία-χορωδία - Πικρό ψωμί [1964, Χρ. Λεοντή
TTITLE12=Κ. Βίρβου]
TTITLE13=Περπινιάδης Βαγγέλης-Νόρμα Ρία - Γυρισμός [1966, Χ. Λεοντή-Ζ. Μάναλη]
TTITLE14=Περπινιάδης Βαγγέλης-Νόρμα Ρία - Μιά πίκρα μάς ενώνει [1966, Δ. Μπουκ
TTITLE14=ουβάλα-Λ. Παπαδόπουλου]
TTITLE15=Περπινιάδης Βαγγέλης-Νόρμα Ρία - Κι έξαφνα έγινες κύριος [1966, Β. Μα
TTITLE15=κρίδη-Λ. Παπαδόπουλου]
TTITLE16=Περπινιάδης Βαγγέλης-Νόρμα Ρία - Γειά σου θα σού πω εγώ [1966, Δ. Μπο
TTITLE16=υκουβάλα-Λ. Παπαδόπουλου]
TTITLE17=Περπινιάδης Βαγγέλης-Νόρμα Ρία-χορωδία - Μέσ' στο σκοτάδι περπατώ [19
TTITLE17=64, Χρ. Λεοντή-Κ. Βίρβου]
EXTD=
EXTT0=
EXTT1=
EXTT2=
EXTT3=
EXTT4=
EXTT5=
EXTT6=
EXTT7=
EXTT8=
EXTT9=
EXTT10=
EXTT11=
EXTT12=
EXTT13=
EXTT14=
EXTT15=
EXTT16=
EXTT17=
PLAYORDER=
